<svg width="82" height="82" viewBox="0 0 82 82" fill="none" xmlns="http://www.w3.org/2000/svg">
<path d="M81.9767 56.9513C81.6223 54.9427 74.6414 18.6991 71.1952 0.828369C46.442 2.83698 13.62 8.16374 0.30307 10.576L12.1184 81.9851C27.7738 79.7993 47.8353 72.8528 55.9091 69.6528C60.1922 66.8713 69.2752 60.9833 71.3429 59.6836C73.4106 58.3839 76.3398 54.1206 77.546 52.1513C78.373 52.2104 80.8444 55.3759 81.9767 56.9513Z" fill="#AAB8FF"/>
<path d="M70.0137 60.4959C72.7312 59.3734 76.1675 54.4651 77.546 52.1513C78.5503 52.3876 80.869 55.3513 81.9029 56.8774C72.3324 62.8442 60.6845 67.8805 56.0568 69.579L70.0137 60.4959Z" fill="#6F80DC"/>
</svg>
