<svg width="107" height="94" viewBox="0 0 107 94" fill="none" xmlns="http://www.w3.org/2000/svg">
<g clip-path="url(#clip0)">
<path fill-rule="evenodd" clip-rule="evenodd" d="M25.7963 7.82107L48.2657 40.6444L9.03109 36.3338C8.41638 37.5001 7.87161 40.2991 10.6103 42.1652C13.349 44.0314 17.474 45.1707 19.1942 45.5071L54.8052 49.8188L61.1864 58.9001C62.1646 60.2569 63.6663 63.9608 61.8483 67.9227C60.0303 71.8845 61.5409 77.45 62.4544 79.577C63.5649 82.1625 66.9497 85.4668 72.9061 85.7225C78.8625 85.9782 82.6172 82.7416 84.6197 79.3359C86.6222 75.9303 86.7514 69.9115 82.83 65.7641C78.4077 61.0871 73.6172 59.5655 71.5073 59.1066L65.8434 50.9799L75.8849 51.6616C78.275 56.4201 84.913 58.5408 89.1782 58.3545C95.0838 58.0964 100.047 53.7671 101.301 50.241C103.442 44.2212 101.462 39.095 95.5477 35.6177C90.7864 32.8181 85.2563 34.5759 82.9633 35.9989C81.4235 36.9545 78.6386 39.4034 76.8018 41.2225C74.5058 43.4964 69.8204 42.7665 66.9328 42.241L59.6485 41.5818L44.096 19.647C42 16.5671 37.1457 9.9752 34.4964 8.24693C31.8471 6.51866 29.6075 5.86971 28.8188 5.76126C28.1683 5.84065 26.6531 6.36375 25.7963 7.82107ZM58.9079 43.3846C57.5523 42.5876 55.807 43.0407 55.0097 44.3967C54.2124 45.7527 54.665 47.4981 56.0206 48.2952C57.3762 49.0923 59.1215 48.6392 59.9188 47.2832C60.7161 45.9272 60.2635 44.1817 58.9079 43.3846ZM67.5676 69.7934C69.5223 66.469 73.8011 65.3582 77.1246 67.3123C80.448 69.2665 81.5576 73.5456 79.6029 76.87C77.6482 80.1944 73.3694 81.3052 70.0459 79.351C66.7225 77.3969 65.6129 73.1178 67.5676 69.7934ZM93.2098 40.3183C89.8864 38.3642 85.6076 39.475 83.6529 42.7994C81.6982 46.1238 82.8078 50.4029 86.1312 52.3571C89.4546 54.3112 93.7334 53.2004 95.6881 49.876C97.6429 46.5516 96.5333 42.2725 93.2098 40.3183Z" fill="#AAB8FF"/>
</g>
<defs>
<clipPath id="clip0">
<rect width="107" height="94" fill="white"/>
</clipPath>
</defs>
</svg>
