<svg width="98" height="68" viewBox="0 0 98 68" fill="none" xmlns="http://www.w3.org/2000/svg">
<path d="M25.8141 59.4334C27.7839 60.6202 35.7805 64.1749 39.5325 65.8039C42.6104 66.8511 49.0826 68.7012 50.349 67.7238C51.6153 66.7464 55.3908 66.6184 57.1202 66.6766C58.5566 67.142 63.2584 67.5667 70.5749 65.5421C77.8914 63.5175 89.4524 58.9389 94.3183 56.9026C95.1097 56.8735 96.9037 55.8903 97.7479 52.1902C98.0864 48.9336 98.3491 41.9135 96.6926 39.8855C95.3348 38.2231 93.8115 34.3736 90.8887 32.206C89.6095 31.4163 88.0815 30.6434 87.8108 30.2861C86.8009 29.4439 84.7011 27.6017 84.3812 26.9699L73.301 17.7196C71.8939 16.4978 69.0096 13.6005 68.7281 11.7854C68.4467 9.97022 65.9727 8.99282 64.7709 8.73102C63.9314 8.54815 64.0562 8.16682 63.188 7.50928C62.2606 6.80686 61.6931 5.88029 61.6051 5.24032C60.4033 3.98949 56.6805 1.26093 51.4042 0.35335C46.1279 -0.55423 40.236 0.498797 37.9496 1.13876C37.5392 0.935134 36.5074 0.65006 35.6632 1.13876C34.819 1.62746 33.6113 1.57509 33.113 1.48783C25.5503 1.40056 19.1307 4.62945 14.8217 6.81114C11.3745 8.55649 8.22633 14.8688 7.08313 17.8068C5.44161 21.9666 2.17615 30.705 2.2465 32.3805C2.33444 34.4749 -0.391662 44.6852 0.0480317 44.8597C0.399786 44.9994 0.604977 45.5579 0.663602 45.8197C0.458412 46.0815 0.276672 46.832 1.19123 47.7396C2.1058 48.6471 4.32771 52.3065 5.32435 54.0228C5.73473 54.7209 7.50523 56.5187 11.3042 58.1244C15.1031 59.7301 18.2807 58.968 19.3945 58.3862C20.7136 58.2407 23.8442 58.2465 25.8141 59.4334Z" fill="#AAB8FF"/>
</svg>
